<svg width="121" height="32" viewBox="0 0 121 32" fill="none" xmlns="http://www.w3.org/2000/svg">
<g id="Group 73">
<g id="sign">
<path id="Vector 32" d="M0 18.8158C0 13.7283 2.29053 8.99427 5.03091 5.27954H5.87653C4.29317 7.39702 1.22991 11.8371 0.747145 17.3458C0.747145 17.3458 5.87652 13.1525 13.1902 17.3458C20.5039 21.5392 25.6333 17.3458 25.6333 17.3458C25.1505 11.8371 22.0873 7.39702 20.5039 5.27954H21.3495C24.0899 8.99427 26.3804 13.7283 26.3804 18.8158C26.3804 25.5773 20.9957 32.0001 13.1902 32.0001C5.38475 32.0001 0 25.5773 0 18.8158Z" fill="white" style="fill:white;fill-opacity:1;"/>
<path id="Intersect" d="M18.02 0L19.9677 2.64024H6.13477L8.08248 0H18.02Z" fill="white" style="fill:white;fill-opacity:1;"/>
</g>
<g id="Bucket">
<path id="Vector" d="M117.512 26.7446C116.653 26.7446 115.897 26.5708 115.242 26.2231C114.588 25.855 114.077 25.354 113.709 24.7201C113.361 24.0861 113.187 23.35 113.187 22.5115V13.4319H110.672V10.7019H113.187L113.586 6.40747H116.132V10.7019H120.181V13.4319H116.132V22.2661C116.132 22.7569 116.296 23.1659 116.623 23.4931C116.95 23.8203 117.369 23.9839 117.88 23.9839H120.181V26.7446H117.512Z" fill="white" style="fill:white;fill-opacity:1;"/>
<path id="Vector_2" d="M103.346 27.0502C101.833 27.0502 100.503 26.723 99.3583 26.0687C98.2335 25.4143 97.3542 24.4736 96.7203 23.2466C96.1068 21.9992 95.8 20.4859 95.8 18.7068C95.8 16.9686 96.1068 15.4758 96.7203 14.2283C97.3542 12.9605 98.2335 12.0096 99.3583 11.3756C100.483 10.7212 101.782 10.394 103.254 10.394C104.808 10.394 106.137 10.7621 107.242 11.4983C108.366 12.2141 109.215 13.165 109.788 14.351C110.36 15.5371 110.646 16.7845 110.646 18.0933C110.646 18.4001 110.626 18.6966 110.585 18.9829C110.565 19.2692 110.534 19.5043 110.493 19.6884H97.7939V17.2344H107.732C107.63 16.4982 107.405 15.8132 107.058 15.1792C106.71 14.5249 106.209 14.0034 105.555 13.6149C104.921 13.2263 104.154 13.032 103.254 13.032C102.252 13.032 101.413 13.2774 100.739 13.7682C100.064 14.2386 99.5628 14.8827 99.2356 15.7007C98.9084 16.5187 98.7448 17.4696 98.7448 18.5534C98.7448 19.8009 98.9186 20.8642 99.2663 21.7436C99.6344 22.6229 100.166 23.2875 100.861 23.7374C101.557 24.1873 102.385 24.4122 103.346 24.4122C104.225 24.4122 104.961 24.2384 105.555 23.8908C106.148 23.5227 106.659 22.991 107.088 22.2957H110.248C109.92 23.2773 109.44 24.1259 108.806 24.8417C108.172 25.537 107.395 26.0789 106.475 26.4674C105.555 26.856 104.512 27.0502 103.346 27.0502Z" fill="white" style="fill:white;fill-opacity:1;"/>
<path id="Vector_3" d="M82.8618 26.7458V5.27368H85.8066V18.0956L92.8617 10.7031H96.4199L88.9967 18.525L96.88 26.7458H93.2604L85.8066 19.0158V26.7458H82.8618Z" fill="white" style="fill:white;fill-opacity:1;"/>
<path id="Vector_4" d="M74.2468 27.0502C72.7336 27.0502 71.4043 26.723 70.2592 26.0687C69.1344 25.4143 68.2551 24.4736 67.6212 23.2466C67.0077 21.9992 66.7009 20.4859 66.7009 18.7068C66.7009 16.9481 67.0077 15.4451 67.6212 14.1977C68.2551 12.9502 69.1344 12.0096 70.2592 11.3756C71.4043 10.7212 72.7336 10.394 74.2468 10.394C75.4125 10.394 76.4554 10.5985 77.3756 11.0075C78.2959 11.3961 79.0729 11.9584 79.7069 12.6946C80.3408 13.4104 80.8214 14.2692 81.1486 15.2713H78.0811C77.6721 14.5351 77.1507 13.9932 76.5167 13.6455C75.8828 13.2774 75.1262 13.0934 74.2468 13.0934C73.347 13.0934 72.5495 13.3081 71.8542 13.7376C71.1589 14.167 70.617 14.8112 70.2285 15.67C69.8399 16.5085 69.6457 17.5207 69.6457 18.7068C69.6457 19.9133 69.8399 20.946 70.2285 21.8049C70.617 22.6433 71.1589 23.2773 71.8542 23.7067C72.5495 24.1362 73.347 24.3509 74.2468 24.3509C75.1262 24.3509 75.8828 24.1668 76.5167 23.7988C77.1507 23.4307 77.6721 22.8785 78.0811 22.1423H81.1486C80.8214 23.1648 80.3408 24.0441 79.7069 24.7803C79.0729 25.4961 78.2959 26.0584 77.3756 26.4674C76.4554 26.856 75.4125 27.0502 74.2468 27.0502Z" fill="white" style="fill:white;fill-opacity:1;"/>
<path id="Vector_5" d="M57.4605 27.0499C56.3153 27.0499 55.2826 26.7943 54.3624 26.283C53.4626 25.7513 52.7571 24.9947 52.2459 24.0131C51.7346 23.0111 51.479 21.8557 51.479 20.5469V10.7004H54.4237V20.3629C54.4237 21.2013 54.5669 21.917 54.8532 22.5101C55.1599 23.1031 55.5894 23.5632 56.1415 23.8904C56.6937 24.1972 57.3378 24.3505 58.074 24.3505C58.8102 24.3505 59.4646 24.1767 60.0372 23.8291C60.6302 23.461 61.0903 22.9702 61.4175 22.3567C61.7652 21.7432 61.939 21.0786 61.939 20.3629V10.7004H64.9144V26.7431H62.4604L62.0923 24.688H61.939C61.4277 25.5059 60.7733 26.1092 59.9758 26.4977C59.1987 26.8658 58.3603 27.0499 57.4605 27.0499Z" fill="white" style="fill:white;fill-opacity:1;"/>
<path id="Vector_6" d="M33.7585 26.7458V5.27368H43.1756C44.5048 5.27368 45.65 5.51908 46.6111 6.00987C47.5722 6.48021 48.2982 7.16527 48.789 8.06505C49.3002 8.96483 49.5559 10.0282 49.5559 11.2552C49.5559 12.2572 49.3002 13.1775 48.789 14.0159C48.2778 14.8543 47.6131 15.4678 46.7952 15.8563C47.654 16.204 48.38 16.8277 48.973 17.7275C49.5661 18.6273 49.8626 19.6395 49.8626 20.7642C49.8626 21.9912 49.607 23.0546 49.0957 23.9544C48.605 24.8542 47.879 25.5495 46.9179 26.0402C45.9567 26.5106 44.8116 26.7458 43.4823 26.7458H33.7585ZM43.1756 23.893C43.8504 23.893 44.4435 23.7601 44.9547 23.4943C45.4864 23.2284 45.8954 22.8501 46.1817 22.3593C46.468 21.8685 46.6111 21.2857 46.6111 20.6109C46.6111 19.5884 46.2941 18.7909 45.6602 18.2183C45.0467 17.6252 44.2185 17.3287 43.1756 17.3287H37.01V23.893H43.1756ZM42.8688 14.6907C43.5437 14.6907 44.1367 14.5578 44.648 14.292C45.1796 14.0261 45.5886 13.6478 45.8749 13.157C46.1612 12.6662 46.3044 12.0834 46.3044 11.4086C46.3044 10.3861 45.9874 9.58855 45.3535 9.01596C44.74 8.42292 43.9118 8.1264 42.8688 8.1264H37.01V14.6907H42.8688Z" fill="white" style="fill:white;fill-opacity:1;"/>
</g>
</g>
</svg>
